<?xml version="1.0" standalone="no"?>
<!DOCTYPE svg PUBLIC "-//W3C//DTD SVG 20010904//EN"
 "http://www.w3.org/TR/2001/REC-SVG-20010904/DTD/svg10.dtd">
<svg version="1.0" xmlns="http://www.w3.org/2000/svg"
 width="1280.000000pt" height="1280.000000pt" viewBox="0 0 1280.000000 1280.000000"
 preserveAspectRatio="xMidYMid meet">
<g transform="translate(0.000000,1280.000000) scale(0.100000,-0.100000)"
fill="#000000" stroke="none">
<path d="M2570 11964 c-93 -9 -197 -29 -323 -60 -203 -50 -319 -99 -477 -201
-201 -131 -334 -255 -457 -429 -157 -222 -210 -341 -281 -629 l-37 -150 -3
-4020 c-2 -2867 0 -4044 8 -4104 14 -103 52 -269 87 -376 98 -301 320 -602
584 -792 224 -162 380 -228 704 -301 l120 -27 3975 -3 c2798 -2 4003 0 4070 8
289 33 568 128 770 263 202 135 328 254 453 431 161 228 251 456 302 766 13
84 15 541 15 4080 0 4367 5 4026 -59 4286 -61 248 -149 422 -326 649 -88 112
-172 191 -302 283 -237 169 -392 233 -753 310 -68 14 -448 16 -4055 17 -2189
1 -3996 0 -4015 -1z m7905 -174 c4 -7 -1312 -10 -3940 -10 -2628 0 -3944 3
-3940 10 4 7 1328 10 3940 10 2612 0 3936 -3 3940 -10z m-608 -1161 c89 -12
249 -71 338 -125 126 -76 286 -235 354 -353 46 -78 101 -210 122 -291 12 -47
14 -561 14 -3415 0 -3178 -1 -3363 -18 -3424 -50 -183 -143 -339 -282 -476
-140 -137 -277 -215 -476 -272 -61 -17 -212 -18 -3414 -18 -3221 0 -3352 1
-3415 18 -104 30 -227 83 -306 132 -87 54 -243 205 -301 290 -85 127 -146 281
-162 410 -15 123 -16 6564 -1 6683 16 129 84 295 170 422 39 57 200 219 257
258 44 31 196 105 268 131 33 12 87 25 120 30 93 13 6636 13 6732 0z m-8687
-239 c0 -5 -2 -10 -4 -10 -3 0 -8 5 -11 10 -3 6 -1 10 4 10 6 0 11 -4 11 -10z
m10730 -21 c0 -10 -4 -19 -10 -19 -5 0 -10 12 -10 26 0 14 4 23 10 19 6 -3 10
-15 10 -26z m-9720 -369 c0 -5 -5 -10 -11 -10 -5 0 -7 5 -4 10 3 6 8 10 11 10
2 0 4 -4 4 -10z m8690 -206 c0 -8 -5 -12 -10 -9 -6 4 -8 11 -5 16 9 14 15 11
15 -7z m-4 -6691 c-10 -10 -19 5 -10 18 6 11 8 11 12 0 2 -7 1 -15 -2 -18z
m-6 -69 c0 -8 -4 -12 -10 -9 -5 3 -10 10 -10 16 0 5 5 9 10 9 6 0 10 -7 10
-16z m1040 -563 c0 -11 -4 -23 -10 -26 -6 -4 -10 5 -10 19 0 14 5 26 10 26 6
0 10 -9 10 -19z m-10730 -22 c0 -11 -4 -17 -10 -14 -5 3 -10 13 -10 21 0 8 5
14 10 14 6 0 10 -9 10 -21z"/>
<path d="M4450 9504 c-19 -2 -91 -9 -160 -15 -264 -23 -620 -95 -854 -174
-126 -42 -265 -101 -288 -122 -17 -15 -18 -126 -18 -2109 0 -1889 2 -2094 16
-2108 23 -24 53 -20 135 18 226 104 590 191 969 233 228 25 702 25 865 -1 237
-36 452 -103 640 -199 165 -84 270 -161 400 -290 98 -98 125 -120 149 -120 60
0 56 -148 56 2119 l0 2081 -26 39 c-14 21 -51 65 -82 97 -214 221 -531 398
-860 481 -230 59 -306 67 -617 71 -159 2 -306 1 -325 -1z"/>
<path d="M7973 9495 c-421 -54 -789 -208 -1077 -452 -47 -40 -110 -103 -141
-140 l-55 -67 0 -2096 c0 -1617 3 -2099 12 -2108 7 -7 24 -12 39 -12 21 0 52
25 140 113 270 267 610 426 1054 493 222 33 651 28 970 -12 322 -41 699 -140
887 -235 51 -26 93 -25 112 3 14 20 16 235 16 2093 0 1622 -3 2075 -13 2095
-36 74 -501 224 -877 285 -224 35 -373 47 -660 50 -216 3 -325 0 -407 -10z"/>
<path d="M4492 4910 c-463 -28 -919 -124 -1236 -261 -138 -60 -126 -28 -126
-344 0 -354 -14 -337 207 -246 363 149 845 231 1361 231 343 0 575 -49 863
-183 300 -139 644 -411 865 -683 67 -83 80 -94 108 -94 28 0 41 11 107 92 317
393 774 698 1216 813 184 47 301 58 598 52 150 -3 332 -13 410 -22 354 -41
699 -128 924 -231 84 -39 111 -42 134 -16 15 16 17 51 17 289 0 309 8 282
-102 332 -158 72 -436 154 -683 201 -274 52 -718 88 -930 75 -402 -24 -794
-166 -1130 -408 -170 -123 -364 -298 -485 -441 -35 -42 -69 -76 -75 -76 -7 0
-44 38 -84 85 -321 374 -769 662 -1205 776 -227 59 -457 77 -754 59z"/>
</g>
</svg>
